<svg width="25" height="27" viewBox="0 0 25 27" fill="none" xmlns="http://www.w3.org/2000/svg">
<path d="M24.0968 13.4381C24.0968 20.6608 18.8328 26.47 12.3931 26.47C5.95349 26.47 0.689453 20.6608 0.689453 13.4381C0.689453 6.21538 5.95349 0.40625 12.3931 0.40625C18.8328 0.40625 24.0968 6.21538 24.0968 13.4381Z" fill="#F7F7F7" stroke="black" stroke-width="0.5"/>
<path d="M12.5476 20.5931C11.5772 20.5931 10.6795 20.4354 9.85458 20.12C9.04182 19.7924 8.33217 19.3375 7.72564 18.7553C7.13123 18.173 6.66419 17.4876 6.32453 16.6991C5.997 15.9106 5.83324 15.0493 5.83324 14.1152C5.83324 13.1812 5.997 12.3199 6.32453 11.5314C6.66419 10.7429 7.13729 10.0575 7.74383 9.47522C8.35037 8.89294 9.06002 8.4441 9.87278 8.1287C10.6977 7.80117 11.5953 7.63741 12.5658 7.63741C13.5363 7.63741 14.4218 7.78904 15.2224 8.09231C16.0352 8.39558 16.7267 8.85655 17.2968 9.47522L16.4598 10.3304C15.926 9.79668 15.3377 9.41456 14.6948 9.18408C14.0518 8.95359 13.3604 8.83835 12.6204 8.83835C11.8319 8.83835 11.1041 8.97179 10.4369 9.23867C9.7818 9.49341 9.20559 9.8634 8.70823 10.3486C8.223 10.8217 7.84088 11.3797 7.56187 12.0227C7.29499 12.6535 7.16155 13.351 7.16155 14.1152C7.16155 14.8673 7.29499 15.5649 7.56187 16.2078C7.84088 16.8507 8.223 17.4148 8.70823 17.9C9.20559 18.3731 9.7818 18.7431 10.4369 19.01C11.1041 19.2647 11.8258 19.3921 12.6022 19.3921C13.33 19.3921 14.0154 19.2829 14.6584 19.0646C15.3134 18.8462 15.9139 18.4762 16.4598 17.9546L17.224 18.9736C16.6175 19.5074 15.9078 19.9137 15.0951 20.1927C14.2823 20.4596 13.4332 20.5931 12.5476 20.5931ZM15.9321 18.8098V14.1152H17.224V18.9736L15.9321 18.8098Z" fill="black"/>
</svg>
