<svg width="24" height="27" viewBox="0 0 24 27" fill="none" xmlns="http://www.w3.org/2000/svg">
<ellipse cx="11.9537" cy="13.2819" rx="11.9537" ry="13.2819" fill="#F7F7F7"/>
<path d="M12.7644 20.4368C11.794 20.4368 10.8963 20.2791 10.0714 19.9637C9.25862 19.6362 8.54897 19.1813 7.94243 18.599C7.34802 18.0167 6.88099 17.3313 6.54133 16.5428C6.2138 15.7543 6.05003 14.8931 6.05003 13.959C6.05003 13.0249 6.2138 12.1636 6.54133 11.3751C6.88099 10.5866 7.35409 9.90124 7.96063 9.31897C8.56717 8.73669 9.27682 8.28785 10.0896 7.97245C10.9145 7.64492 11.8121 7.48116 12.7826 7.48116C13.7531 7.48116 14.6386 7.63279 15.4392 7.93606C16.252 8.23933 16.9435 8.7003 17.5136 9.31897L16.6766 10.1742C16.1428 9.64043 15.5545 9.25831 14.9116 9.02783C14.2686 8.79734 13.5772 8.6821 12.8372 8.6821C12.0487 8.6821 11.3209 8.81554 10.6537 9.08242C9.9986 9.33716 9.42239 9.70715 8.92502 10.1924C8.43979 10.6655 8.05767 11.2235 7.77867 11.8664C7.51179 12.4972 7.37835 13.1947 7.37835 13.959C7.37835 14.7111 7.51179 15.4086 7.77867 16.0515C8.05767 16.6945 8.43979 17.2586 8.92502 17.7438C9.42239 18.2169 9.9986 18.5869 10.6537 18.8537C11.3209 19.1085 12.0426 19.2359 12.819 19.2359C13.5468 19.2359 14.2322 19.1267 14.8752 18.9083C15.5302 18.69 16.1307 18.32 16.6766 17.7984L17.4408 18.8174C16.8343 19.3511 16.1246 19.7575 15.3119 20.0365C14.4991 20.3034 13.65 20.4368 12.7644 20.4368ZM16.1489 18.6536V13.959H17.4408V18.8174L16.1489 18.6536Z" fill="black"/>
</svg>
