<svg width="20" height="20" viewBox="0 0 20 20" fill="none" xmlns="http://www.w3.org/2000/svg">
<g clip-path="url(#clip0_1532_1086)">
<path d="M10.0096 7.65006L17.1616 0.488506C17.8129 -0.162835 18.8633 -0.162835 19.5115 0.488506C20.1628 1.13985 20.1628 2.19029 19.5115 2.83844L12.3595 10.0096L19.5115 17.1616C20.1628 17.8129 20.1628 18.8633 19.5115 19.5115C18.8602 20.1628 17.8097 20.1628 17.1616 19.5115L10.0096 12.3595L2.83844 19.5115C2.1871 20.1628 1.13665 20.1628 0.488506 19.5115C-0.162835 18.8602 -0.162835 17.8097 0.488506 17.1616L7.64049 10.0096L0.491699 2.84164C-0.162835 2.19029 -0.162835 1.13985 0.488506 0.491699C1.13985 -0.156449 2.19029 -0.159642 2.83844 0.491699L10.0096 7.64368V7.65006Z" fill="black" fill-opacity="0.8"/>
</g>
<defs>
<clipPath id="clip0_1532_1086">
<rect width="20" height="20" fill="white"/>
</clipPath>
</defs>
</svg>
